<svg width="55" height="38" viewBox="0 0 55 38" fill="none" xmlns="http://www.w3.org/2000/svg">
<path id="Vector" d="M16.955 31.4111L20.346 37.6917L13.5659 37.6927C6.074 37.6939 0.00450191 28.9327 0.00342664 21.9921L2.08172e-05 0.00834656L23.7302 0.00467018L23.7336 21.9885L10.1735 21.9906C10.175 31.4122 16.955 31.4111 16.955 31.4111ZM40.6837 21.9858C40.6851 31.4074 47.4652 31.4064 47.4652 31.4064L50.8562 37.6869L44.0761 37.688C36.5842 37.6892 30.5147 28.928 30.5136 21.9874L30.5102 0.00361978L54.2404 -5.66001e-05L54.2438 21.9837L40.6837 21.9858Z" fill="url(#paint0_linear_1621_301)"/>
<defs>
<linearGradient id="paint0_linear_1621_301" x1="48.479" y1="37.6873" x2="-5.52264" y2="-5.5476" gradientUnits="userSpaceOnUse">
<stop stop-color="#3E66DF"/>
<stop offset="1" stop-color="#270063"/>
</linearGradient>
</defs>
</svg>
