<svg width="54" height="38" viewBox="0 0 54 38" fill="none" xmlns="http://www.w3.org/2000/svg">
<path d="M16.8779 31.6587L20.2535 37.9888L13.5043 37.9899C6.04641 37.991 0.00449121 29.1608 0.00340746 22.1655L-2.52107e-05 0.00836673L23.6222 0.00470707L23.6257 22.1618L10.1272 22.1639C10.1287 31.6598 16.8779 31.6587 16.8779 31.6587ZM40.4987 22.1592C40.5002 31.6551 47.2494 31.654 47.2494 31.654L50.625 37.9841L43.8758 37.9851C36.4179 37.9863 30.376 29.1561 30.3749 22.1607L30.3715 0.00366145L53.9937 1.7796e-06L53.9972 22.1571L40.4987 22.1592Z" fill="url(#paint0_linear_2014_4)" fill-opacity="0.15"/>
<defs>
<linearGradient id="paint0_linear_2014_4" x1="48.2586" y1="37.9845" x2="-6.01732" y2="-4.93412" gradientUnits="userSpaceOnUse">
<stop stop-color="#3E66DF"/>
<stop offset="1" stop-color="#270063"/>
</linearGradient>
</defs>
</svg>
