<svg width="1878" height="1080" viewBox="0 0 1878 1080" fill="none" xmlns="http://www.w3.org/2000/svg">
<g clip-path="url(#clip0_413_15)">
<rect width="1920" height="1080" fill="white"/>
<g clip-path="url(#clip1_413_15)">
<path d="M283.511 663.21L406.617 776.468C413.044 782.381 423.431 777.793 423.388 769.06L422.518 591.1C422.506 588.773 423.307 586.515 424.781 584.715L459.574 542.235C462.909 538.163 462.517 532.203 458.677 528.604L290.339 370.787C283.953 364.799 273.5 369.328 273.5 378.082V640.396C273.5 649.066 277.131 657.34 283.511 663.21Z" fill="url(#paint0_linear_413_15)"/>
<path d="M476.165 504.311L340.463 371.137C334.072 364.865 338.512 354 347.467 354H591.477C599.9 354 604.55 363.775 599.236 370.31L490.927 503.483C487.21 508.053 480.369 508.436 476.165 504.311Z" fill="url(#paint1_linear_413_15)"/>
</g>
<path d="M758.75 435.5V469.75H687.25V506.75H740.75V540H687.25V611H644.5V435.5H758.75ZM772.719 541C772.719 526.667 775.385 514.083 780.719 503.25C786.219 492.417 793.635 484.083 802.969 478.25C812.302 472.417 822.719 469.5 834.219 469.5C844.052 469.5 852.635 471.5 859.969 475.5C867.469 479.5 873.219 484.75 877.219 491.25V471.5H919.969V611H877.219V591.25C873.052 597.75 867.219 603 859.719 607C852.385 611 843.802 613 833.969 613C822.635 613 812.302 610.083 802.969 604.25C793.635 598.25 786.219 589.833 780.719 579C775.385 568 772.719 555.333 772.719 541ZM877.219 541.25C877.219 530.583 874.219 522.167 868.219 516C862.385 509.833 855.219 506.75 846.719 506.75C838.219 506.75 830.969 509.833 824.969 516C819.135 522 816.219 530.333 816.219 541C816.219 551.667 819.135 560.167 824.969 566.5C830.969 572.667 838.219 575.75 846.719 575.75C855.219 575.75 862.385 572.667 868.219 566.5C874.219 560.333 877.219 551.917 877.219 541.25ZM1007.65 613C995.48 613 984.646 610.917 975.146 606.75C965.646 602.583 958.146 596.917 952.646 589.75C947.146 582.417 944.063 574.25 943.396 565.25H985.646C986.146 570.083 988.396 574 992.396 577C996.396 580 1001.31 581.5 1007.15 581.5C1012.48 581.5 1016.56 580.5 1019.4 578.5C1022.4 576.333 1023.9 573.583 1023.9 570.25C1023.9 566.25 1021.81 563.333 1017.65 561.5C1013.48 559.5 1006.73 557.333 997.396 555C987.396 552.667 979.063 550.25 972.396 547.75C965.73 545.083 959.98 541 955.146 535.5C950.313 529.833 947.896 522.25 947.896 512.75C947.896 504.75 950.063 497.5 954.396 491C958.896 484.333 965.396 479.083 973.896 475.25C982.563 471.417 992.813 469.5 1004.65 469.5C1022.15 469.5 1035.9 473.833 1045.9 482.5C1056.06 491.167 1061.9 502.667 1063.4 517H1023.9C1023.23 512.167 1021.06 508.333 1017.4 505.5C1013.9 502.667 1009.23 501.25 1003.4 501.25C998.396 501.25 994.563 502.25 991.896 504.25C989.23 506.083 987.896 508.667 987.896 512C987.896 516 989.98 519 994.146 521C998.48 523 1005.15 525 1014.15 527C1024.48 529.667 1032.9 532.333 1039.4 535C1045.9 537.5 1051.56 541.667 1056.4 547.5C1061.4 553.167 1063.98 560.833 1064.15 570.5C1064.15 578.667 1061.81 586 1057.15 592.5C1052.65 598.833 1046.06 603.833 1037.4 607.5C1028.9 611.167 1018.98 613 1007.65 613ZM1168.05 574.75V611H1146.3C1130.8 611 1118.72 607.25 1110.05 599.75C1101.38 592.083 1097.05 579.667 1097.05 562.5V507H1080.05V471.5H1097.05V437.5H1139.8V471.5H1167.8V507H1139.8V563C1139.8 567.167 1140.8 570.167 1142.8 572C1144.8 573.833 1148.13 574.75 1152.8 574.75H1168.05ZM1234.61 491.25C1238.61 484.75 1244.36 479.5 1251.86 475.5C1259.36 471.5 1267.95 469.5 1277.61 469.5C1289.11 469.5 1299.53 472.417 1308.86 478.25C1318.2 484.083 1325.53 492.417 1330.86 503.25C1336.36 514.083 1339.11 526.667 1339.11 541C1339.11 555.333 1336.36 568 1330.86 579C1325.53 589.833 1318.2 598.25 1308.86 604.25C1299.53 610.083 1289.11 613 1277.61 613C1267.78 613 1259.2 611.083 1251.86 607.25C1244.53 603.25 1238.78 598 1234.61 591.5V611H1191.86V426H1234.61V491.25ZM1295.61 541C1295.61 530.333 1292.61 522 1286.61 516C1280.78 509.833 1273.53 506.75 1264.86 506.75C1256.36 506.75 1249.11 509.833 1243.11 516C1237.28 522.167 1234.36 530.583 1234.36 541.25C1234.36 551.917 1237.28 560.333 1243.11 566.5C1249.11 572.667 1256.36 575.75 1264.86 575.75C1273.36 575.75 1280.61 572.667 1286.61 566.5C1292.61 560.167 1295.61 551.667 1295.61 541ZM1404.29 426V611H1361.54V426H1404.29ZM1573.02 471.5V611H1530.27V592C1525.94 598.167 1520.02 603.167 1512.52 607C1505.19 610.667 1497.02 612.5 1488.02 612.5C1477.35 612.5 1467.94 610.167 1459.77 605.5C1451.6 600.667 1445.27 593.75 1440.77 584.75C1436.27 575.75 1434.02 565.167 1434.02 553V471.5H1476.52V547.25C1476.52 556.583 1478.94 563.833 1483.77 569C1488.6 574.167 1495.1 576.75 1503.27 576.75C1511.6 576.75 1518.19 574.167 1523.02 569C1527.85 563.833 1530.27 556.583 1530.27 547.25V471.5H1573.02ZM1646.48 494.75C1651.48 487.083 1657.73 481.083 1665.23 476.75C1672.73 472.25 1681.06 470 1690.23 470V515.25H1678.48C1667.81 515.25 1659.81 517.583 1654.48 522.25C1649.15 526.75 1646.48 534.75 1646.48 546.25V611H1603.73V471.5H1646.48V494.75Z" fill="url(#paint2_linear_413_15)"/>
<path d="M695.843 659.207C695.843 665.065 693.823 669.947 689.783 673.852C685.81 677.69 679.717 679.609 671.502 679.609H657.968V709H648.777V638.603H671.502C679.447 638.603 685.474 640.522 689.581 644.36C693.756 648.198 695.843 653.147 695.843 659.207ZM671.502 672.034C676.619 672.034 680.39 670.923 682.814 668.701C685.238 666.479 686.45 663.314 686.45 659.207C686.45 650.521 681.467 646.178 671.502 646.178H657.968V672.034H671.502ZM716.457 662.641C718.073 659.476 720.363 657.019 723.325 655.268C726.355 653.517 730.025 652.642 734.334 652.642V662.136H731.91C721.608 662.136 716.457 667.725 716.457 678.902V709H707.266V653.652H716.457V662.641ZM769.083 709.909C763.898 709.909 759.185 708.731 754.943 706.374C750.768 704.017 747.469 700.684 745.045 696.375C742.688 691.998 741.51 686.948 741.51 681.225C741.51 675.569 742.722 670.586 745.146 666.277C747.637 661.9 751.004 658.567 755.246 656.278C759.488 653.921 764.235 652.743 769.487 652.743C774.739 652.743 779.486 653.921 783.728 656.278C787.97 658.567 791.303 661.867 793.727 666.176C796.218 670.485 797.464 675.502 797.464 681.225C797.464 686.948 796.185 691.998 793.626 696.375C791.135 700.684 787.734 704.017 783.425 706.374C779.116 708.731 774.335 709.909 769.083 709.909ZM769.083 701.829C772.382 701.829 775.48 701.055 778.375 699.506C781.27 697.957 783.593 695.634 785.344 692.537C787.162 689.44 788.071 685.669 788.071 681.225C788.071 676.781 787.196 673.01 785.445 669.913C783.694 666.816 781.405 664.526 778.577 663.045C775.749 661.496 772.685 660.722 769.386 660.722C766.019 660.722 762.922 661.496 760.094 663.045C757.333 664.526 755.111 666.816 753.428 669.913C751.745 673.01 750.903 676.781 750.903 681.225C750.903 685.736 751.711 689.541 753.327 692.638C755.01 695.735 757.232 698.058 759.993 699.607C762.754 701.088 765.784 701.829 769.083 701.829ZM806.114 681.124C806.114 675.468 807.259 670.519 809.548 666.277C811.838 661.968 814.969 658.635 818.941 656.278C822.981 653.921 827.493 652.743 832.475 652.743C836.785 652.743 840.791 653.753 844.494 655.773C848.198 657.726 851.026 660.318 852.978 663.55V634.26H862.27V709H852.978V698.597C851.16 701.896 848.467 704.623 844.898 706.778C841.33 708.865 837.155 709.909 832.374 709.909C827.459 709.909 822.981 708.697 818.941 706.273C814.969 703.849 811.838 700.449 809.548 696.072C807.259 691.695 806.114 686.713 806.114 681.124ZM852.978 681.225C852.978 677.05 852.137 673.414 850.453 670.317C848.77 667.22 846.481 664.863 843.585 663.247C840.757 661.564 837.626 660.722 834.192 660.722C830.758 660.722 827.627 661.53 824.799 663.146C821.971 664.762 819.716 667.119 818.032 670.216C816.349 673.313 815.507 676.949 815.507 681.124C815.507 685.366 816.349 689.069 818.032 692.234C819.716 695.331 821.971 697.722 824.799 699.405C827.627 701.021 830.758 701.829 834.192 701.829C837.626 701.829 840.757 701.021 843.585 699.405C846.481 697.722 848.77 695.331 850.453 692.234C852.137 689.069 852.978 685.4 852.978 681.225ZM926.888 653.652V709H917.697V700.819C915.947 703.647 913.489 705.869 910.324 707.485C907.227 709.034 903.793 709.808 900.022 709.808C895.713 709.808 891.841 708.933 888.407 707.182C884.973 705.364 882.246 702.671 880.226 699.102C878.274 695.533 877.297 691.19 877.297 686.073V653.652H886.387V684.861C886.387 690.315 887.768 694.523 890.528 697.486C893.289 700.381 897.06 701.829 901.84 701.829C906.756 701.829 910.627 700.314 913.455 697.284C916.283 694.254 917.697 689.844 917.697 684.053V653.652H926.888ZM938.973 681.225C938.973 675.502 940.118 670.519 942.407 666.277C944.696 661.968 947.861 658.635 951.901 656.278C956.008 653.921 960.688 652.743 965.94 652.743C972.741 652.743 978.329 654.393 982.706 657.692C987.15 660.991 990.079 665.57 991.493 671.428H981.595C980.652 668.061 978.801 665.402 976.04 663.449C973.347 661.496 969.98 660.52 965.94 660.52C960.688 660.52 956.446 662.338 953.214 665.974C949.982 669.543 948.366 674.626 948.366 681.225C948.366 687.891 949.982 693.042 953.214 696.678C956.446 700.314 960.688 702.132 965.94 702.132C969.98 702.132 973.347 701.189 976.04 699.304C978.733 697.419 980.585 694.725 981.595 691.224H991.493C990.012 696.88 987.049 701.425 982.605 704.859C978.161 708.226 972.606 709.909 965.94 709.909C960.688 709.909 956.008 708.731 951.901 706.374C947.861 704.017 944.696 700.684 942.407 696.375C940.118 692.066 938.973 687.016 938.973 681.225ZM1014.97 661.227V693.85C1014.97 696.543 1015.54 698.462 1016.68 699.607C1017.83 700.684 1019.82 701.223 1022.64 701.223H1029.41V709H1021.13C1016.01 709 1012.17 707.822 1009.61 705.465C1007.06 703.108 1005.78 699.237 1005.78 693.85V661.227H998.605V653.652H1005.78V639.714H1014.97V653.652H1029.41V661.227H1014.97ZM1045.29 644.663C1043.54 644.663 1042.06 644.057 1040.85 642.845C1039.64 641.633 1039.03 640.152 1039.03 638.401C1039.03 636.65 1039.64 635.169 1040.85 633.957C1042.06 632.745 1043.54 632.139 1045.29 632.139C1046.98 632.139 1048.39 632.745 1049.54 633.957C1050.75 635.169 1051.35 636.65 1051.35 638.401C1051.35 640.152 1050.75 641.633 1049.54 642.845C1048.39 644.057 1046.98 644.663 1045.29 644.663ZM1049.74 653.652V709H1040.55V653.652H1049.74ZM1089.54 709.909C1084.36 709.909 1079.64 708.731 1075.4 706.374C1071.23 704.017 1067.93 700.684 1065.5 696.375C1063.15 691.998 1061.97 686.948 1061.97 681.225C1061.97 675.569 1063.18 670.586 1065.6 666.277C1068.1 661.9 1071.46 658.567 1075.7 656.278C1079.95 653.921 1084.69 652.743 1089.95 652.743C1095.2 652.743 1099.94 653.921 1104.19 656.278C1108.43 658.567 1111.76 661.867 1114.19 666.176C1116.68 670.485 1117.92 675.502 1117.92 681.225C1117.92 686.948 1116.64 691.998 1114.08 696.375C1111.59 700.684 1108.19 704.017 1103.88 706.374C1099.57 708.731 1094.79 709.909 1089.54 709.909ZM1089.54 701.829C1092.84 701.829 1095.94 701.055 1098.83 699.506C1101.73 697.957 1104.05 695.634 1105.8 692.537C1107.62 689.44 1108.53 685.669 1108.53 681.225C1108.53 676.781 1107.65 673.01 1105.9 669.913C1104.15 666.816 1101.86 664.526 1099.04 663.045C1096.21 661.496 1093.14 660.722 1089.84 660.722C1086.48 660.722 1083.38 661.496 1080.55 663.045C1077.79 664.526 1075.57 666.816 1073.89 669.913C1072.2 673.01 1071.36 676.781 1071.36 681.225C1071.36 685.736 1072.17 689.541 1073.79 692.638C1075.47 695.735 1077.69 698.058 1080.45 699.607C1083.21 701.088 1086.24 701.829 1089.54 701.829ZM1156.97 652.642C1163.71 652.642 1169.16 654.696 1173.34 658.803C1177.51 662.843 1179.6 668.701 1179.6 676.377V709H1170.51V677.69C1170.51 672.169 1169.13 667.96 1166.37 665.065C1163.61 662.102 1159.84 660.621 1155.05 660.621C1150.21 660.621 1146.33 662.136 1143.44 665.166C1140.61 668.196 1139.2 672.606 1139.2 678.397V709H1130.01V653.652H1139.2V661.53C1141.02 658.702 1143.47 656.514 1146.57 654.965C1149.74 653.416 1153.2 652.642 1156.97 652.642ZM1214.2 709.909C1209.96 709.909 1206.16 709.202 1202.79 707.788C1199.43 706.307 1196.77 704.287 1194.81 701.728C1192.86 699.102 1191.78 696.106 1191.58 692.739H1201.07C1201.34 695.5 1202.62 697.755 1204.91 699.506C1207.27 701.257 1210.33 702.132 1214.1 702.132C1217.61 702.132 1220.37 701.358 1222.39 699.809C1224.41 698.26 1225.42 696.308 1225.42 693.951C1225.42 691.527 1224.34 689.743 1222.18 688.598C1220.03 687.386 1216.7 686.208 1212.18 685.063C1208.08 683.986 1204.71 682.908 1202.08 681.831C1199.53 680.686 1197.3 679.037 1195.42 676.882C1193.6 674.66 1192.69 671.765 1192.69 668.196C1192.69 665.368 1193.53 662.776 1195.22 660.419C1196.9 658.062 1199.29 656.211 1202.39 654.864C1205.49 653.45 1209.02 652.743 1212.99 652.743C1219.12 652.743 1224.07 654.292 1227.84 657.389C1231.61 660.486 1233.63 664.728 1233.9 670.115H1224.71C1224.51 667.22 1223.33 664.897 1221.17 663.146C1219.09 661.395 1216.26 660.52 1212.69 660.52C1209.39 660.52 1206.76 661.227 1204.81 662.641C1202.86 664.055 1201.88 665.907 1201.88 668.196C1201.88 670.014 1202.46 671.529 1203.6 672.741C1204.81 673.886 1206.29 674.828 1208.04 675.569C1209.86 676.242 1212.35 677.017 1215.52 677.892C1219.49 678.969 1222.72 680.047 1225.21 681.124C1227.71 682.134 1229.83 683.683 1231.58 685.77C1233.39 687.857 1234.34 690.584 1234.4 693.951C1234.4 696.981 1233.56 699.708 1231.88 702.132C1230.2 704.556 1227.81 706.475 1224.71 707.889C1221.68 709.236 1218.18 709.909 1214.2 709.909Z" fill="url(#paint3_linear_413_15)"/>
</g>
<defs>
<linearGradient id="paint0_linear_413_15" x1="409.5" y1="476.5" x2="298" y2="664.5" gradientUnits="userSpaceOnUse">
<stop stop-color="#FC476D"/>
<stop offset="1" stop-color="#0D47FF"/>
</linearGradient>
<linearGradient id="paint1_linear_413_15" x1="550.5" y1="327.5" x2="409.5" y2="496" gradientUnits="userSpaceOnUse">
<stop offset="0.130964" stop-color="#0D47FF"/>
<stop offset="1" stop-color="white"/>
</linearGradient>
<linearGradient id="paint2_linear_413_15" x1="1881.12" y1="429.116" x2="604.728" y2="700.592" gradientUnits="userSpaceOnUse">
<stop offset="0.114682" stop-color="#290063"/>
<stop offset="1" stop-color="#0F0634"/>
</linearGradient>
<linearGradient id="paint3_linear_413_15" x1="1388.59" y1="641.854" x2="646.02" y2="842.077" gradientUnits="userSpaceOnUse">
<stop offset="0.24489" stop-color="#290063"/>
<stop offset="1" stop-color="#0D0631"/>
</linearGradient>
<clipPath id="clip0_413_15">
<rect width="1878" height="1080" fill="white"/>
</clipPath>
<clipPath id="clip1_413_15">
<rect width="339" height="439" fill="white" transform="translate(274 353)"/>
</clipPath>
</defs>
</svg>
